<svg width="87" height="121" viewBox="0 0 87 121" fill="none" xmlns="http://www.w3.org/2000/svg">
	<path fill-rule="evenodd" clip-rule="evenodd" d="M17.3587 95.8013C18.2986 95.8013 19.2001 95.4279 19.8647 94.7633L47.0235 67.6045C48.5468 67.9459 50.1741 68.1718 51.8956 68.1718C52.1922 68.1718 52.4876 68.1665 52.7816 68.1559V67.0073C51.0428 66.0695 49.3659 64.9592 47.8974 63.4906C46.8728 62.4661 45.978 61.3609 45.2129 60.1954C44.5564 60.3361 43.9413 60.6628 43.4493 61.1548L15.8908 88.7134L7.08796 88.7134L7.08796 79.9106L9.61686 77.3817H21.9636C23.9209 77.3817 25.5076 75.795 25.5076 73.8377V61.4909L34.6465 52.352C35.5678 51.4307 35.9093 50.0782 35.5357 48.83C35.0295 47.1387 34.7175 45.5261 34.7175 43.9057C34.7175 34.4198 42.4097 26.7276 51.8956 26.7276C54.5282 26.7276 57.0226 27.32 59.2528 28.3789C63.5857 27.6844 68.0967 28.3682 72.0786 30.4304C67.7257 23.9242 60.3104 19.6396 51.8956 19.6396C38.4951 19.6396 27.6295 30.5052 27.6295 43.9057C27.6295 45.6272 27.8554 47.2545 28.1968 48.7778L19.4577 57.517C18.7931 58.1816 18.4197 59.083 18.4197 60.0229L18.4197 70.2937H8.1489C7.20898 70.2937 6.30755 70.6671 5.64293 71.3317L1.03801 75.9366C0.373382 76.6012 0 77.5027 0 78.4426V92.2573C0 94.2146 1.5867 95.8013 3.54398 95.8013H17.3587Z" fill="#0C0C0D" />
	<path fill-rule="evenodd" clip-rule="evenodd" d="M75.8627 107.449C75.8627 108.389 75.4893 109.29 74.8247 109.955L65.0562 119.723C63.6722 121.107 61.4282 121.107 60.0442 119.723L50.2757 109.955C49.6111 109.29 49.2377 108.389 49.2377 107.449V100.937C49.2377 99.9966 49.6111 99.0952 50.2757 98.4306L57.5383 91.1681L50.2757 83.9055C49.6111 83.2409 49.2377 82.3395 49.2377 81.3996V69.0405C47.9192 68.2048 46.6088 67.2139 45.3915 65.9966C35.9159 56.521 35.9159 41.1547 45.3915 31.6792C54.8671 22.2036 70.2333 22.2036 79.7089 31.6792C89.1845 41.1547 89.1845 56.521 79.7089 65.9966C78.4916 67.2139 77.1812 68.2048 75.8627 69.0405L75.8627 107.449ZM68.7747 105.981V67.0073C68.7747 65.7044 69.4897 64.5065 70.6364 63.888C72.1903 63.05 73.5512 62.1304 74.697 60.9847C81.4046 54.2771 81.4045 43.3987 74.697 36.6911C67.9894 29.9835 57.111 29.9835 50.4034 36.6911C43.6959 43.3987 43.6959 54.2771 50.4034 60.9847C51.5492 62.1304 52.9101 63.05 54.464 63.888C55.6108 64.5065 56.3257 65.7044 56.3257 67.0073V79.9316L65.0562 88.6621C66.4402 90.0461 66.4402 92.29 65.0562 93.674L56.3257 102.405L56.3257 105.981L62.5502 112.205L68.7747 105.981Z" fill="#0C0C0D" />
	<path fill-rule="evenodd" clip-rule="evenodd" d="M64.9285 51.216C66.242 49.9025 66.242 47.773 64.9285 46.4595C63.615 45.146 61.4854 45.146 60.1719 46.4595C58.8584 47.773 58.8584 49.9025 60.1719 51.216C61.4854 52.5295 63.615 52.5295 64.9285 51.216ZM69.9404 41.4475C74.0219 45.529 74.0219 52.1465 69.9404 56.228C65.8589 60.3095 59.2415 60.3095 55.16 56.228C51.0785 52.1465 51.0785 45.529 55.16 41.4475C59.2415 37.366 65.8589 37.366 69.9404 41.4475Z" fill="#0C0C0D" />
	<path fill-rule="evenodd" clip-rule="evenodd" d="M38.6113 30.8308C36.6594 31.13 34.8396 29.8181 34.5468 27.9007L37.8818 27.3895C34.5468 27.9006 34.5469 27.9016 34.5468 27.9007L34.5456 27.8927L34.5441 27.8829L34.5405 27.8583L34.5309 27.7892C34.5235 27.7345 34.5143 27.6625 34.5042 27.5749C34.4841 27.3999 34.4601 27.1606 34.4398 26.8699C34.3995 26.2931 34.3721 25.4907 34.4239 24.5722C34.5215 22.844 34.9235 20.2074 36.5353 17.985C43.7514 8.03541 57.7942 5.73659 67.8899 12.7865C77.9857 19.8364 80.373 33.6084 73.1569 43.558C72.0078 45.1424 69.7753 45.5185 68.1705 44.3978C66.5658 43.2772 66.1964 41.0844 67.3456 39.4999C72.2391 32.7527 70.6489 23.3567 63.7286 18.5243C56.8083 13.6918 47.2401 15.2959 42.3466 22.0431C41.9085 22.6472 41.6304 23.6831 41.5606 24.9207C41.5287 25.4851 41.5456 25.989 41.5707 26.3477C41.583 26.5248 41.597 26.6606 41.6065 26.7437C41.6113 26.7851 41.6149 26.8129 41.6167 26.8258L41.6158 26.8206M38.6113 30.8308C40.5582 30.5324 41.9013 28.7439 41.6175 26.832Z" fill="#0C0C0D" />
</svg>