<svg width="121" height="121" viewBox="0 0 121 121" fill="none" xmlns="http://www.w3.org/2000/svg">
	<path fill-rule="evenodd" clip-rule="evenodd" d="M25.5953 93.6258C26.6022 93.6258 27.5678 93.2258 28.2798 92.5139L57.3733 63.4204C59.0051 63.7861 60.7483 64.0281 62.5924 64.0281C62.9102 64.0281 63.2266 64.0224 63.5416 64.0111V62.7806C61.6789 61.776 59.8825 60.5866 58.3094 59.0134C57.2119 57.9159 56.2533 56.732 55.4337 55.4835C54.7304 55.6342 54.0715 55.9841 53.5444 56.5113L24.0228 86.0329H14.5929L14.5929 76.6031L17.3019 73.894H30.5282C32.625 73.894 34.3247 72.1943 34.3247 70.0976L34.3247 56.8713L44.1145 47.0814C45.1015 46.0945 45.4673 44.6456 45.0671 43.3084C44.5249 41.4966 44.1906 39.7692 44.1906 38.0334C44.1906 27.8717 52.4308 19.6316 62.5924 19.6316C65.4125 19.6316 68.0847 20.2662 70.4737 21.4005C75.1152 20.6565 79.9477 21.3891 84.2132 23.5982C79.5502 16.6284 71.6067 12.0387 62.5924 12.0387C48.2373 12.0387 36.5977 23.6783 36.5977 38.0334C36.5977 39.8775 36.8397 41.6208 37.2055 43.2525L27.8438 52.6142C27.1318 53.3262 26.7318 54.2918 26.7318 55.2987L26.7318 66.3011L15.7294 66.3011C14.7225 66.3011 13.7569 66.7011 13.0449 67.4131L8.11196 72.346C7.39998 73.058 7 74.0236 7 75.0305L7 89.8294C7 91.9261 8.69973 93.6258 10.7964 93.6258H25.5953Z" fill="#0C0C0D" />
	<path fill-rule="evenodd" clip-rule="evenodd" d="M88.2668 106.103C88.2668 107.11 87.8668 108.076 87.1549 108.788L76.6905 119.252C75.2079 120.735 72.8041 120.735 71.3215 119.252L60.8572 108.788C60.1452 108.076 59.7452 107.11 59.7452 106.103V99.1268C59.7452 98.12 60.1452 97.1543 60.8572 96.4424L68.637 88.6625L60.8572 80.8826C60.1452 80.1706 59.7452 79.205 59.7452 78.1981V64.9587C58.3327 64.0635 56.929 63.0019 55.625 61.6979C45.4744 51.5473 45.4744 35.0864 55.625 24.9358C65.7756 14.7853 82.2365 14.7853 92.3871 24.9358C102.538 35.0864 102.538 51.5473 92.3871 61.6979C91.0831 63.0019 89.6793 64.0635 88.2668 64.9587L88.2668 106.103ZM80.674 104.531V62.7806C80.6739 61.3849 81.4398 60.1017 82.6683 59.4392C84.3328 58.5414 85.7907 57.5564 87.0181 56.3289C94.2035 49.1436 94.2035 37.4902 87.0181 30.3048C79.8327 23.1194 68.1793 23.1194 60.994 30.3048C53.8086 37.4902 53.8086 49.1436 60.994 56.3289C62.2214 57.5564 63.6792 58.5414 65.3438 59.4392C66.5722 60.1017 67.3381 61.3849 67.3381 62.7806V76.6256L76.6905 85.978C78.1731 87.4606 78.1731 89.8644 76.6905 91.347L67.3381 100.699L67.3381 104.531L74.006 111.198L80.674 104.531Z" fill="#0C0C0D" />
	<path fill-rule="evenodd" clip-rule="evenodd" d="M76.5537 45.8644C77.9607 44.4574 77.9607 42.1761 76.5537 40.769C75.1466 39.362 72.8653 39.362 71.4583 40.769C70.0512 42.1761 70.0512 44.4574 71.4583 45.8644C72.8653 47.2715 75.1466 47.2715 76.5537 45.8644ZM81.9227 35.4001C86.2949 39.7723 86.2949 46.8612 81.9227 51.2334C77.5504 55.6057 70.4616 55.6057 66.0893 51.2334C61.717 46.8612 61.717 39.7723 66.0893 35.4001C70.4616 31.0278 77.5504 31.0278 81.9227 35.4001Z" fill="#0C0C0D" />
	<path fill-rule="evenodd" clip-rule="evenodd" d="M48.3618 24.0271C46.2708 24.3476 44.3215 22.9423 44.0077 20.8882L47.5803 20.3406C44.0077 20.8882 44.0079 20.8892 44.0077 20.8882L44.0064 20.8796L44.0049 20.8692L44.001 20.8429L43.9907 20.7688C43.9828 20.7102 43.973 20.6331 43.9622 20.5392C43.9406 20.3517 43.9149 20.0954 43.8932 19.784C43.85 19.1661 43.8206 18.3065 43.8761 17.3226C43.9807 15.4713 44.4113 12.6469 46.1379 10.2662C53.868 -0.392176 68.9112 -2.85475 79.7261 4.69735C90.5411 12.2495 93.0984 27.0025 85.3683 37.6609C84.1373 39.3582 81.7458 39.761 80.0267 38.5606C78.3076 37.3601 77.912 35.0111 79.143 33.3137C84.3851 26.0859 82.6816 16.0206 75.2683 10.8439C67.855 5.66715 57.6053 7.38547 52.3632 14.6133C51.8938 15.2605 51.596 16.3702 51.5211 17.696C51.487 18.3006 51.5051 18.8403 51.532 19.2246C51.5452 19.4143 51.5601 19.5598 51.5704 19.6488C51.5755 19.6932 51.5794 19.723 51.5813 19.7368L51.5803 19.7312M48.3618 24.0271C50.4474 23.7074 51.8861 21.7915 51.5822 19.7434Z" fill="#0C0C0D" />
</svg>